<svg aria-hidden="true" style="position: absolute; width: 0; height: 0; overflow: hidden;" version="1.1" xmlns="http://www.w3.org/2000/svg" xmlns:xlink="http://www.w3.org/1999/xlink">
<defs>
<symbol id="icon-calendar" viewBox="0 0 32 32">
<title>calendar</title>
<path d="M27 31h-22c-1.104 0-2-0.896-2-2v-22c0-1.105 0.896-2 2-2h2v1c0 1.657 1.343 3 3 3s3-1.343 3-3v-1h6v1c0 1.657 1.344 3 3 3s3-1.343 3-3v-1h2c1.104 0 2 0.895 2 2v22c0 1.104-0.896 2-2 2zM27 12h-22v17h22v-17zM10 17h-3v-3h3v3zM10 22h-3v-3h3v3zM10 27h-3v-3h3v3zM15 17h-3v-3h3v3zM15 22h-3v-3h3v3zM15 27h-3v-3h3v3zM20 17h-3v-3h3v3zM20 22h-3v-3h3v3zM20 27h-3v-3h3v3zM25 17h-3v-3h3v3zM25 22h-3v-3h3v3zM25 27h-3v-3h3v3zM21.969 8c-1.088 0-1.969-0.882-1.969-1.969v-2.062c0-1.088 0.881-1.969 1.969-1.969s1.969 0.881 1.969 1.969v2.062c0 1.087-0.881 1.969-1.969 1.969zM9.969 8c-1.088 0-1.969-0.882-1.969-1.969v-2.062c0-1.088 0.881-1.969 1.969-1.969s1.969 0.881 1.969 1.969v2.062c0 1.087-0.882 1.969-1.969 1.969z"></path>
</symbol>
<symbol id="icon-cancel" viewBox="0 0 32 32">
<title>cancel</title>
<path d="M16 29c-7.18 0-13-5.82-13-13s5.82-13 13-13 13 5.82 13 13-5.82 13-13 13zM16 6c-5.522 0-10 4.478-10 10s4.478 10 10 10c5.523 0 10-4.478 10-10s-4.477-10-10-10zM20.537 19.535l-1.014 1.014c-0.186 0.186-0.488 0.186-0.675 0l-2.87-2.87-2.87 2.87c-0.187 0.186-0.488 0.186-0.675 0l-1.014-1.014c-0.186-0.186-0.186-0.488 0-0.675l2.871-2.869-2.871-2.87c-0.186-0.187-0.186-0.489 0-0.676l1.014-1.013c0.187-0.187 0.488-0.187 0.675 0l2.87 2.87 2.87-2.87c0.187-0.187 0.489-0.187 0.675 0l1.014 1.013c0.186 0.187 0.186 0.489 0 0.676l-2.871 2.87 2.871 2.869c0.186 0.187 0.186 0.49 0 0.675z"></path>
</symbol>
<symbol id="icon-location" viewBox="0 0 32 32">
<title>location</title>
<path d="M11.163 11.554c0-2.655 2.166-4.807 4.837-4.807s4.837 2.152 4.837 4.807-2.166 4.806-4.837 4.806-4.837-2.152-4.837-4.806zM7.777 12.154c0 2.011 2.454 6.25 2.454 6.25l5.769 9.614 5.438-9.613c0 0 2.785-4.27 2.785-6.25 0-4.513-3.682-8.171-8.223-8.171s-8.223 3.657-8.223 8.17z"></path>
</symbol>
<symbol id="icon-magnifier" viewBox="0 0 32 32">
<title>magnifier</title>
<path d="M29.156 29.961l-0.709 0.709c-0.785 0.784-2.055 0.784-2.838 0l-5.676-5.674c-0.656-0.658-0.729-1.644-0.281-2.412l-3.104-3.102c-1.669 1.238-3.728 1.979-5.965 1.979-5.54 0-10.031-4.491-10.031-10.031s4.491-10.032 10.031-10.032c5.541 0 10.031 4.491 10.031 10.032 0 2.579-0.98 4.923-2.58 6.7l3.035 3.035c0.768-0.447 1.754-0.375 2.41 0.283l5.676 5.674c0.784 0.785 0.784 2.056 0.001 2.839zM18.088 11.389c0-4.155-3.369-7.523-7.524-7.523s-7.524 3.367-7.524 7.523 3.368 7.523 7.523 7.523 7.525-3.368 7.525-7.523z"></path>
</symbol>
</defs>
</svg>
